<svg width="36" height="36" viewBox="0 0 36 36" fill="none" xmlns="http://www.w3.org/2000/svg">
<path d="M7.90219 0.539187C14.3346 -0.179729 20.9833 -0.179729 27.4157 0.539187C29.8307 0.8091 31.9508 2.11509 33.2918 4.01174L16.6173 20.6862L11.4722 15.5411C10.862 14.9309 9.87267 14.9309 9.26248 15.5411C8.65228 16.1513 8.65228 17.1406 9.26248 17.7508L15.5125 24.0008C16.1227 24.611 17.112 24.611 17.7222 24.0008L34.6293 7.09366C34.6762 7.32192 34.7135 7.55371 34.741 7.78862C35.5102 14.3655 35.5102 21.0097 34.741 27.5866C34.2934 31.4136 31.2207 34.4108 27.4157 34.836C20.9833 35.555 14.3346 35.555 7.90219 34.836C4.09723 34.4108 1.02453 31.4136 0.576923 27.5866C-0.192308 21.0097 -0.192308 14.3655 0.576923 7.78862C1.02453 3.96162 4.09723 0.964447 7.90219 0.539187Z" fill="white"/>
</svg>
