<svg width="120" height="36" viewBox="0 0 120 36" fill="none" xmlns="http://www.w3.org/2000/svg">
<path d="M52.14 25.277C50.2333 25.277 48.74 24.817 47.66 23.897C46.5933 22.9637 46.0267 21.617 45.96 19.857C45.9467 19.497 45.94 18.9103 45.94 18.097C45.94 17.2703 45.9467 16.6703 45.96 16.297C46.0267 14.5637 46.6067 13.2303 47.7 12.297C48.7933 11.3503 50.2733 10.877 52.14 10.877C53.3133 10.877 54.3667 11.077 55.3 11.477C56.2333 11.8637 56.9667 12.4237 57.5 13.157C58.0467 13.877 58.3267 14.7237 58.34 15.697V15.737C58.34 15.8437 58.2933 15.937 58.2 16.017C58.12 16.0837 58.0267 16.117 57.92 16.117H55.22C55.0467 16.117 54.9133 16.0837 54.82 16.017C54.7267 15.937 54.6467 15.797 54.58 15.597C54.3933 14.917 54.1 14.4437 53.7 14.177C53.3 13.897 52.7733 13.757 52.12 13.757C50.5467 13.757 49.7333 14.637 49.68 16.397C49.6667 16.757 49.66 17.3103 49.66 18.057C49.66 18.8037 49.6667 19.3703 49.68 19.757C49.7333 21.517 50.5467 22.397 52.12 22.397C52.7733 22.397 53.3067 22.257 53.72 21.977C54.1333 21.6837 54.42 21.2103 54.58 20.557C54.6333 20.357 54.7067 20.2237 54.8 20.157C54.8933 20.077 55.0333 20.037 55.22 20.037H57.92C58.04 20.037 58.14 20.077 58.22 20.157C58.3133 20.237 58.3533 20.337 58.34 20.457C58.3267 21.4303 58.0467 22.2837 57.5 23.017C56.9667 23.737 56.2333 24.297 55.3 24.697C54.3667 25.0837 53.3133 25.277 52.14 25.277ZM65.143 25.277C63.4896 25.277 62.2163 24.8837 61.323 24.097C60.4296 23.3103 59.943 22.2037 59.863 20.777C59.8496 20.6037 59.843 20.3037 59.843 19.877C59.843 19.4503 59.8496 19.1503 59.863 18.977C59.943 17.5637 60.443 16.4637 61.363 15.677C62.283 14.877 63.543 14.477 65.143 14.477C66.7563 14.477 68.023 14.877 68.943 15.677C69.863 16.4637 70.363 17.5637 70.443 18.977C70.4563 19.1503 70.463 19.4503 70.463 19.877C70.463 20.3037 70.4563 20.6037 70.443 20.777C70.363 22.2037 69.8763 23.3103 68.983 24.097C68.0896 24.8837 66.8096 25.277 65.143 25.277ZM65.143 22.837C65.7296 22.837 66.163 22.6637 66.443 22.317C66.723 21.957 66.883 21.4103 66.923 20.677C66.9363 20.5437 66.943 20.277 66.943 19.877C66.943 19.477 66.9363 19.2103 66.923 19.077C66.883 18.357 66.7163 17.817 66.423 17.457C66.143 17.097 65.7163 16.917 65.143 16.917C64.0363 16.917 63.4496 17.637 63.383 19.077L63.363 19.877L63.383 20.677C63.4096 21.4103 63.563 21.957 63.843 22.317C64.1363 22.6637 64.5696 22.837 65.143 22.837ZM76.3295 25.277C75.0229 25.277 74.0029 24.8703 73.2695 24.057C72.5495 23.2303 72.1562 22.0703 72.0895 20.577L72.0695 19.877L72.0895 19.157C72.1429 17.717 72.5362 16.577 73.2695 15.737C74.0162 14.897 75.0362 14.477 76.3295 14.477C77.5429 14.477 78.5229 14.8703 79.2695 15.657V11.377C79.2695 11.2303 79.3162 11.1103 79.4095 11.017C79.5029 10.9237 79.6229 10.877 79.7695 10.877H82.2095C82.3562 10.877 82.4762 10.9237 82.5695 11.017C82.6629 11.1103 82.7095 11.2303 82.7095 11.377V24.577C82.7095 24.7103 82.6629 24.8303 82.5695 24.937C82.4762 25.0303 82.3562 25.077 82.2095 25.077H79.9495C79.8162 25.077 79.6962 25.0303 79.5895 24.937C79.4962 24.8303 79.4495 24.7103 79.4495 24.577V23.937C78.7162 24.8303 77.6762 25.277 76.3295 25.277ZM77.4295 22.597C78.0295 22.597 78.4762 22.4103 78.7695 22.037C79.0629 21.6503 79.2295 21.157 79.2695 20.557C79.2829 20.3837 79.2895 20.1303 79.2895 19.797C79.2895 19.477 79.2829 19.2303 79.2695 19.057C79.2429 18.5103 79.0762 18.057 78.7695 17.697C78.4629 17.337 78.0162 17.157 77.4295 17.157C76.8029 17.157 76.3495 17.3437 76.0695 17.717C75.8029 18.0903 75.6495 18.6037 75.6095 19.257C75.5962 19.3903 75.5895 19.597 75.5895 19.877C75.5895 20.157 75.5962 20.3637 75.6095 20.497C75.6495 21.1503 75.8029 21.6637 76.0695 22.037C76.3495 22.4103 76.8029 22.597 77.4295 22.597ZM89.8667 25.277C88.2667 25.277 87.0067 24.8437 86.0867 23.977C85.1667 23.1103 84.6867 21.8503 84.6467 20.197V19.497C84.7001 17.9237 85.1867 16.697 86.1067 15.817C87.0401 14.9237 88.2867 14.477 89.8467 14.477C90.9801 14.477 91.9334 14.7103 92.7067 15.177C93.4934 15.6303 94.0801 16.257 94.4667 17.057C94.8667 17.857 95.0667 18.777 95.0667 19.817V20.297C95.0667 20.4303 95.0201 20.5503 94.9267 20.657C94.8334 20.7503 94.7134 20.797 94.5667 20.797H88.1667V20.937C88.1934 21.5637 88.3467 22.0703 88.6267 22.457C88.9067 22.8437 89.3134 23.037 89.8467 23.037C90.1801 23.037 90.4534 22.9703 90.6667 22.837C90.8801 22.6903 91.0734 22.517 91.2467 22.317C91.3667 22.1703 91.4601 22.0837 91.5267 22.057C91.6067 22.017 91.7267 21.997 91.8867 21.997H94.3667C94.4867 21.997 94.5867 22.037 94.6667 22.117C94.7601 22.1837 94.8067 22.277 94.8067 22.397C94.8067 22.7437 94.6067 23.1437 94.2067 23.597C93.8201 24.0503 93.2534 24.4437 92.5067 24.777C91.7601 25.1103 90.8801 25.277 89.8667 25.277ZM91.5467 18.817V18.777C91.5467 18.1237 91.3934 17.6103 91.0867 17.237C90.7934 16.8503 90.3801 16.657 89.8467 16.657C89.3267 16.657 88.9134 16.8503 88.6067 17.237C88.3134 17.6103 88.1667 18.1237 88.1667 18.777V18.817H91.5467ZM100.251 25.077C100.064 25.077 99.9178 25.037 99.8111 24.957C99.7178 24.8637 99.6378 24.737 99.5711 24.577L95.7911 15.297L95.7511 15.117C95.7511 14.997 95.7911 14.897 95.8711 14.817C95.9644 14.7237 96.0778 14.677 96.2111 14.677H98.4711C98.7644 14.677 98.9578 14.817 99.0511 15.097L101.311 21.237L103.591 15.097C103.684 14.817 103.878 14.677 104.171 14.677H106.431C106.551 14.677 106.658 14.7237 106.751 14.817C106.844 14.897 106.891 14.997 106.891 15.117L106.851 15.297L103.071 24.577C103.004 24.737 102.918 24.8637 102.811 24.957C102.704 25.037 102.558 25.077 102.371 25.077H100.251ZM112.975 25.277C111.322 25.277 110.048 24.8837 109.155 24.097C108.262 23.3103 107.775 22.2037 107.695 20.777C107.682 20.6037 107.675 20.3037 107.675 19.877C107.675 19.4503 107.682 19.1503 107.695 18.977C107.775 17.5637 108.275 16.4637 109.195 15.677C110.115 14.877 111.375 14.477 112.975 14.477C114.588 14.477 115.855 14.877 116.775 15.677C117.695 16.4637 118.195 17.5637 118.275 18.977C118.288 19.1503 118.295 19.4503 118.295 19.877C118.295 20.3037 118.288 20.6037 118.275 20.777C118.195 22.2037 117.708 23.3103 116.815 24.097C115.922 24.8837 114.642 25.277 112.975 25.277ZM112.975 22.837C113.562 22.837 113.995 22.6637 114.275 22.317C114.555 21.957 114.715 21.4103 114.755 20.677C114.768 20.5437 114.775 20.277 114.775 19.877C114.775 19.477 114.768 19.2103 114.755 19.077C114.715 18.357 114.548 17.817 114.255 17.457C113.975 17.097 113.548 16.917 112.975 16.917C111.868 16.917 111.282 17.637 111.215 19.077L111.195 19.877L111.215 20.677C111.242 21.4103 111.395 21.957 111.675 22.317C111.968 22.6637 112.402 22.837 112.975 22.837Z" fill="#FF5151"/>
<path d="M31.1473 13.5602L31.1255 13.5386C31.1238 13.5374 31.1224 13.5358 31.1215 13.5339L17.5006 0L3.87983 13.5335C3.87826 13.5351 3.8758 13.5382 3.8758 13.5382L3.85333 13.5599C1.77053 15.6409 0.447586 18.354 0.0948177 21.2679C-0.25795 24.1819 0.379698 27.1293 1.90639 29.6418C3.43309 32.1543 5.76122 34.0877 8.52069 35.1345C11.2802 36.1812 14.3126 36.2815 17.136 35.4191C17.3735 35.347 17.6275 35.347 17.8651 35.4191C20.6882 36.2812 23.7205 36.1809 26.4798 35.134C29.2391 34.087 31.567 32.1538 33.0936 29.6415C34.6202 27.1291 35.2579 24.1819 34.9053 21.2681C34.5526 18.3544 33.2299 15.6413 31.1473 13.5602ZM8.7232 22.4847C8.65689 22.5506 8.6043 22.6289 8.56844 22.7148C8.53256 22.8008 8.5141 22.8931 8.51412 22.9862C8.53835 25.3749 9.21776 27.7116 10.4792 29.7451C10.5079 29.7912 10.5211 29.8452 10.517 29.8992C10.513 29.9532 10.4918 30.0046 10.4566 30.046C10.4213 30.0874 10.3738 30.1166 10.3209 30.1295C10.2679 30.1425 10.2122 30.1385 10.1616 30.118C9.21332 29.7217 8.35182 29.1455 7.62531 28.4219C6.13646 26.9423 5.29946 24.9361 5.2981 22.8438C5.29675 20.7516 6.13117 18.7442 7.61812 17.2629L17.5006 7.44468L27.3826 17.2629C28.8698 18.7441 29.7045 20.7514 29.703 22.8438C29.7018 24.9361 28.8647 26.9423 27.3757 28.4219C26.6492 29.1455 25.7877 29.7217 24.8396 30.118C24.7889 30.1385 24.7332 30.1425 24.6802 30.1295C24.6273 30.1166 24.5798 30.0873 24.5445 30.046C24.5093 30.0046 24.488 29.9532 24.484 29.8991C24.4799 29.8451 24.4931 29.7911 24.5218 29.7449C25.7835 27.7116 26.4633 25.3749 26.4879 22.9862C26.4879 22.8931 26.4692 22.8008 26.4332 22.7147C26.3971 22.6285 26.3444 22.5504 26.2779 22.4845L21.6037 17.5584C21.557 17.5198 21.4985 17.4987 21.4378 17.4987C21.3773 17.4987 21.3186 17.5198 21.2721 17.5584C21.2255 17.5969 21.1942 17.6505 21.1833 17.7097C21.1724 17.769 21.1828 17.83 21.2127 17.8824C23.0281 21.1465 21.467 25.835 18.8637 28.4219L18.85 28.4355C18.4907 28.7887 18.0056 28.9867 17.5002 28.9865C16.9948 28.9863 16.5098 28.788 16.1508 28.4347L16.1382 28.4219C13.5339 25.835 11.9736 21.147 13.7893 17.8831C13.8192 17.8307 13.8296 17.7697 13.8187 17.7104C13.8079 17.6512 13.7764 17.5976 13.7299 17.5591C13.6834 17.5205 13.6247 17.4993 13.5642 17.4993C13.5036 17.4993 13.4449 17.5205 13.3984 17.5591L8.7232 22.4847Z" fill="#FF5151"/>
</svg>
